<?xml version="1.0" standalone="no"?>
<!DOCTYPE svg PUBLIC "-//W3C//DTD SVG 20010904//EN"
 "http://www.w3.org/TR/2001/REC-SVG-20010904/DTD/svg10.dtd">
<svg version="1.0" xmlns="http://www.w3.org/2000/svg"
 width="262.000000pt" height="262.000000pt" viewBox="0 0 262.000000 262.000000"
 preserveAspectRatio="xMidYMid meet">
<metadata>
Created by potrace 1.14, written by Peter Selinger 2001-2017
</metadata>
<g transform="translate(0.000000,262.000000) scale(0.100000,-0.100000)"
fill="#000000" stroke="none">
<path d="M1310 2435 c0 -117 -3 -155 -12 -155 -7 0 -33 11 -57 25 -23 14 -48
25 -54 25 -6 0 -18 6 -26 13 -9 7 -45 26 -81 42 -36 17 -68 34 -71 38 -3 5
-10 9 -15 9 -5 0 -37 13 -71 29 -34 16 -65 29 -68 29 -3 0 -5 -83 -5 -185 l0
-185 -27 6 c-16 4 -34 11 -40 17 -7 5 -13 6 -13 2 0 -4 -7 -2 -15 5 -8 7 -15
10 -15 6 0 -4 -13 0 -30 9 -16 8 -32 15 -35 15 -3 1 -10 3 -17 5 -51 19 -164
53 -166 50 -3 -3 -4 -185 -3 -1132 l1 -721 59 18 c33 10 62 15 65 12 3 -3 6 1
6 8 0 7 3 11 6 8 3 -3 29 1 57 9 29 8 59 16 67 18 8 2 15 4 15 5 0 1 7 3 15 5
8 1 27 6 43 10 l27 7 0 -170 c0 -164 1 -171 19 -167 11 2 28 8 38 13 10 6 21
10 26 10 4 0 38 10 75 22 37 12 72 23 77 25 16 3 47 15 84 31 18 8 36 12 39
10 3 -3 12 0 20 6 8 7 20 13 27 14 7 1 22 5 33 8 19 6 20 2 18 -114 -2 -142 4
-159 43 -127 7 6 20 12 29 13 8 2 18 6 21 11 11 15 68 43 75 36 3 -3 6 -2 6 4
0 6 25 21 55 34 30 12 55 26 55 31 0 4 3 7 8 6 8 -2 64 23 72 33 6 6 33 17 40
15 3 0 20 9 38 22 17 13 32 20 32 15 0 -4 4 -3 8 2 4 6 48 30 97 55 50 25 93
50 97 55 4 6 8 7 8 3 0 -4 24 6 53 23 28 16 69 37 90 47 20 9 40 25 43 35 5
15 8 447 3 472 -1 6 -1 14 0 19 3 12 2 217 0 231 -1 6 0 15 1 20 2 9 3 685 1
767 -1 35 -37 88 -61 88 -5 0 -15 6 -22 13 -24 21 -77 57 -86 57 -5 0 -17 9
-27 20 -10 11 -22 17 -26 14 -5 -3 -9 -1 -9 4 0 5 -13 15 -30 22 -16 7 -30 16
-30 21 0 5 -4 9 -9 9 -5 0 -59 34 -120 75 -61 41 -115 75 -121 75 -5 0 -10 5
-10 10 0 6 -6 10 -14 10 -7 0 -19 7 -26 15 -7 8 -24 21 -39 28 -38 20 -75 41
-81 48 -3 3 -31 20 -62 38 -32 18 -58 37 -58 42 0 5 -9 9 -20 9 -19 0 -20 -7
-20 -155z"/>
</g>
</svg>
